inDegrees=no
num_controls=7
num_derivatives=13
num_iterations=50
num_multipliers=7
num_parameters=0
num_slacks=7
num_states=26
objective=0.431861
objective_accelerations=0.049780
objective_balance=0.007102
objective_effort=0.032178
objective_height=0.341622
objective_ligament=0.001179
solver_duration=661.409799
status=Solve_Succeeded
success=true
DataType=double
version=3
OpenSimVersion=4.5
endheader
time	/jointset/ground_pelvis/pelvis_tilt/value	/jointset/ground_pelvis/pelvis_tx/value	/jointset/ground_pelvis/pelvis_ty/value	/jointset/hip_l/hip_flexion_l/value	/jointset/hip_l/hip_adduction_l/value	/jointset/hip_l/hip_rotation_l/value	/jointset/back/lumbar_extension/value	/jointset/patellofemoral_l/patellar_flexion_l/value	/jointset/knee_l/knee_flexion_l/value	/jointset/knee_l/knee_adduction_l/value	/jointset/knee_l/knee_rotation_l/value	/jointset/ankle_l/ankle_angle_l/value	/jointset/subtalar_l/subtalar_angle_l/value	/jointset/ground_pelvis/pelvis_tilt/speed	/jointset/ground_pelvis/pelvis_tx/speed	/jointset/ground_pelvis/pelvis_ty/speed	/jointset/hip_l/hip_flexion_l/speed	/jointset/hip_l/hip_adduction_l/speed	/jointset/hip_l/hip_rotation_l/speed	/jointset/back/lumbar_extension/speed	/jointset/patellofemoral_l/patellar_flexion_l/speed	/jointset/knee_l/knee_flexion_l/speed	/jointset/knee_l/knee_adduction_l/speed	/jointset/knee_l/knee_rotation_l/speed	/jointset/ankle_l/ankle_angle_l/speed	/jointset/subtalar_l/subtalar_angle_l/speed	/forceset/tau_hip_flexion_l	/forceset/tau_hip_adduction_l	/forceset/tau_hip_rotation_l	/forceset/tau_knee_flexion_l	/forceset/tau_ankle_angle_l	/forceset/tau_subtalar_angle_l	/forceset/tau_lumbar_extension	lambda_cid13_p0	lambda_cid13_p1	lambda_cid13_p2	lambda_cid13_p3	lambda_cid13_p4	lambda_cid13_p5	lambda_cid14_p0	/jointset/ground_pelvis/pelvis_tilt/accel	/jointset/ground_pelvis/pelvis_tx/accel	/jointset/ground_pelvis/pelvis_ty/accel	/jointset/hip_l/hip_flexion_l/accel	/jointset/hip_l/hip_adduction_l/accel	/jointset/hip_l/hip_rotation_l/accel	/jointset/back/lumbar_extension/accel	/jointset/patellofemoral_l/patellar_flexion_l/accel	/jointset/knee_l/knee_flexion_l/accel	/jointset/knee_l/knee_adduction_l/accel	/jointset/knee_l/knee_rotation_l/accel	/jointset/ankle_l/ankle_angle_l/accel	/jointset/subtalar_l/subtalar_angle_l/accel	gamma_cid13_p0	gamma_cid13_p1	gamma_cid13_p2	gamma_cid13_p3	gamma_cid13_p4	gamma_cid13_p5	gamma_cid14_p0
0.5	-0.3378521504178414	-0.03280587622771523	0.7676591130238756	1.165826491398014	-0.3047417486436023	0.007093481637467572	-0.3185484878009858	0.8016222691556634	0.8016222691557047	-0.173494793346385	0.1650364356286462	0.1543632269563322	-0.02097247237938757	-0.4516765466325271	-0.174224659179075	-0.5070549525625414	2.143537496555878	0.007013417576078813	0.6888294148189282	-0.6368244757907552	2.093577845110568	2.093577845110699	-0.005214969123805442	0.04925999079166474	0.5215347719270385	0.09226639822757891	-0.1850862165608323	0.06359649663807122	-0.02605728524444299	-0.2562174897226315	0.114635494667042	-0.001773142365601679	0.1834535897304164	-2.245655707988443	0.2124606580075885	0.6497662105526338	-1.994360647637615	-601.3891841864985	-20.57570835076838	-21.38456286626883	0.4861236631621869	0.5340427023046355	-0.4662837238220358	-1.174222775374343	0.6641549755608466	-0.3336410126223371	1.490434056950965	-1.224648025817623	-1.22464802581764	0.05003106678868242	-0.06335068303766604	-0.5512883929520171	0.6650039758689246	-4.389149318508985e-07	-6.018995403816357e-07	2.680050822646345e-06	2.842252953822159e-07	-5.510765555885297e-07	-3.27121016131411e-07	-4.308831302799781e-07
0.51	-0.3423435516157297	-0.03452114751285568	0.7625663882363245	1.187199195265834	-0.3046399782023574	0.01396620237919164	-0.3248416443955978	0.822493076037127	0.8224930760371706	-0.1735481946692291	0.1655255627248023	0.159549619635082	-0.02001840334204847	-0.4465433143650374	-0.1688092288546897	-0.5113770613219073	2.130695121261561	0.01331747455063656	0.6856271376629575	-0.6217056150899145	2.080277110927507	2.080277110927588	-0.005459612039528002	0.04855805080462843	0.5156569480109668	0.0985252143441407	-0.1917706601306753	0.06387480560409303	-0.02613209308457812	-0.2588239029554007	0.1129168836957571	-0.001225100071404847	0.1890471129377991	-3.030035318740239	0.2741510424163172	0.4544692062696641	-1.728922119769727	-605.9707227469705	-20.43244624459401	-20.11398312307995	0.5359446577107638	0.5484035677194666	-0.3983379851744058	-1.385516390795387	0.6097220388155814	-0.3270386793430806	1.537796282866628	-1.428666236598218	-1.428666236605775	-0.06085369025581709	-0.07523670384601241	-0.6190376290405358	0.60277658251721	-4.033328851771823e-07	-5.156648543142523e-07	2.531652516934529e-06	2.719249031652188e-07	-5.078272613475444e-07	-2.389674084949749e-07	-4.029477228395553e-07
0.52	-0.3467818161611107	-0.03618164242070952	0.7574338096545435	1.208434221083843	-0.3044759289952875	0.02080419682690676	-0.3309805755419579	0.8432216995523525	0.8432216995523936	-0.1736038707651271	0.1660073462116243	0.1646746324270498	-0.01900245491295028	-0.4410492161308098	-0.1632693837217533	-0.5150257114084974	2.116001886593841	0.01946917074169261	0.6818841560166402	-0.6059793861404323	2.065141171862531	2.065141171862562	-0.005669923735373634	0.04779126892521457	0.5092587945706637	0.1046422765794003	-0.1984551037005126	0.06415311457011062	-0.02620690092474277	-0.2614303161881681	0.1111982727244699	-0.0006770577772129743	0.1946406361451889	-3.820245295507856	0.3330061669957151	0.2640305998315205	-1.475916436815477	-610.6471835121471	-20.37851293636727	-18.84110034174337	0.5582968565097166	0.5589256640149175	-0.3315919892668792	-1.544394650054992	0.6336828188605148	-0.4417819106916195	1.611907706679223	-1.591689002200636	-1.59168900220065	0.05689731076407113	-0.07631906151317182	-0.6553542977982906	0.6366531996085054	-3.74106517323184e-07	-4.246171069849283e-07	2.418128251967042e-06	2.654999071996468e-07	-4.723528633617854e-07	-1.560604052023972e-07	-3.794440142845782e-07
0.53	-0.3511634451715363	-0.03778618315432853	0.7522681430478273	1.22951334349021	-0.3042510217782599	0.02760222812125061	-0.3369592880408374	0.8637900437925792	0.8637900437926671	-0.1736612872239865	0.166481010161326	0.1697332321128891	-0.01792592199064053	-0.4352205967516944	-0.1576240623352789	-0.5179905505605916	2.099525068205485	0.02548253822273833	0.6776522501991311	-0.5896761947111204	2.048234028903664	2.04823402890373	-0.005819956935296039	0.04692541132915377	0.5023834296291465	0.1106348696878179	-0.2050204660535781	0.06418781299950255	-0.02622304883072054	-0.2641429484080692	0.1095962666247248	-0.0002334517762334682	0.2001150627015744	-4.579408760578702	0.4340676947687607	0.06425055917875219	-1.204282326810319	-615.3451321543762	-20.29810672380089	-17.56879555841045	0.6035139576899309	0.5695929010860481	-0.2614617160146088	-1.743994747808834	0.580389308007759	-0.4247013019274954	1.652562699664588	-1.78420061487925	-1.784200614873835	-0.05192835252546623	-0.09460614847782503	-0.7152657841663334	0.5759293772181486	-3.458161316781374e-07	-3.329902286147495e-07	2.30913955171237e-06	2.60945425070659e-07	-4.397937462378196e-07	-7.540830281321609e-08	-3.561729196014165e-07
